<svg width="82" height="79" viewBox="0 0 82 79" fill="none" xmlns="http://www.w3.org/2000/svg">
<path opacity="0.1" d="M42.06 7.70762C42.06 7.70762 46.8331 1.14084 54.6694 1.51544C62.5057 1.89003 69.5107 7.07573 71.6828 15.6782C73.7952 24.0423 71.8428 31.398 68.0063 35.5866C64.2859 39.6447 56.5323 40.0231 56.5323 40.0231M53.8909 57.5913C53.8909 57.5913 56.8908 57.8637 58.722 62.8545C61.0646 69.2397 55.6289 75.5 55.6289 75.5C55.8082 71.474 50.7732 70.844 46.7998 68.7062C42.8263 66.5683 43.9949 60.1491 45.6311 57.1618C47.2672 54.1745 50.6994 52.941 52.7415 53.8586C54.5148 54.6551 53.0719 58.0605 51.0667 56.3407C48.0827 53.781 49.1389 48.1961 62.4617 44.2421C75.7846 40.288 80.1113 55.8697 80.1113 55.8697C80.1113 55.8697 78.1641 54.7799 73.6441 55.9529C69.124 57.1278 70.1381 58.3008 64.6831 58.5543C59.2281 58.8059 52.9366 51.5315 52.9366 51.5315M52.9366 51.5334C52.9366 51.5334 70.2822 44.7548 72.9077 49.8061C75.5333 54.8575 60.0822 47.2653 60.0822 47.2653M48.2795 59.0272C48.2795 59.0272 53.7731 65.2421 54.4743 66.5002C55.1755 67.7583 54.1229 69.8338 52.7802 68.8916C51.4358 67.9475 52.9384 60.344 52.9384 60.344M61.8449 51.6242C61.8449 51.6242 64.6989 52.2713 66.7252 54.3675M9.26866 13.616C13.0348 8.37357 21.632 3.67031 32.0341 4.92842C42.4361 6.18653 48.7487 10.7157 52.8382 18.6428C56.9294 26.5698 56.3442 42.4239 52.253 48.5896C48.1635 54.7572 41.2305 62.9567 27.7741 62.4194C14.8273 61.9029 5.00871 52.818 2.29352 39.7299C-0.117632 28.1061 5.50079 18.8604 9.26866 13.616ZM20.1892 27.5366C19.1874 27.9547 18.9027 30.4312 20.1892 30.8077C21.4756 31.1861 23.189 30.3044 22.878 29.1712C22.5652 28.0398 21.3965 27.0334 20.1892 27.5366ZM45.5485 21.2536C46.0107 20.3058 44.9369 18.7166 43.879 19.4204C42.8192 20.1241 42.1145 21.8382 42.9018 22.2506C43.6909 22.6631 44.9914 22.3963 45.5485 21.2536ZM21.4756 36.9696C21.0538 37.9383 22.1926 39.4726 23.2207 38.7177C24.2488 37.9628 24.8814 36.2166 24.0765 35.8439C23.2734 35.4712 21.9835 35.8023 21.4756 36.9696ZM63.9327 10.9371C63.5408 11.2701 64.7358 16.6639 63.4512 17.0593C62.1665 17.4547 62.0294 15.9033 62.648 15.7047C63.2666 15.5079 65.8236 19.9368 66.3649 19.759C66.9062 19.5831 66.1593 13.6728 67.2594 13.843C68.3613 14.0114 68.407 15.4512 67.7181 15.5363C67.031 15.6195 64.3246 10.6041 63.9327 10.9371ZM39.7086 13.2736C41.0197 16.2647 32.7388 35.0455 30.5666 32.3496C28.3945 29.6555 42.828 15.8447 45.6574 16.5163C48.4869 17.1879 54.2617 30.1966 51.5694 32.6674C48.877 35.1382 30.3223 36.6423 30.6475 34.5177C30.9726 32.3931 48.877 32.5653 49.9684 35.6964C51.0597 38.8274 50.8383 40.7742 49.2373 44.5012C47.6363 48.2283 45.7523 53.1264 41.937 52.2694C38.1235 51.4123 28.282 37.9912 30.5034 36.5042C32.7247 35.0172 38.8282 50.7729 36.8177 55.1867C35.1429 58.8664 21.3824 59.9675 20.0943 54.3864C18.5882 47.8594 26.8638 35.8382 28.2275 36.6272C29.5913 37.4161 21.6039 52.2542 15.5268 51.6242C9.44967 50.9923 6.5851 39.5066 8.09471 35.3104C9.60432 31.1142 26.8444 32.3799 27.2346 34.3645C27.6247 36.3472 9.1597 31.468 7.74675 29.1523C6.33379 26.8366 12.6622 12.6947 18.5372 13.6406C24.4122 14.5866 30.6879 31.7007 28.9516 32.6807C27.2153 33.6607 19.4686 14.7568 23.2259 11.0657C26.9833 7.37465 37.9055 9.15492 39.7086 13.2736Z" stroke="#F54748" stroke-width="2" stroke-miterlimit="10"/>
</svg>
